<?xml version="1.0" encoding="UTF-8" standalone="no"?>
<svg xmlns="http://www.w3.org/2000/svg" viewBox="0 0 400 400" width="400" height="400">
  <title>NYIN International FZCO</title>
  <desc>NYIN International FZCO — official logo. Hexagonal frame with three mountain peaks, rising sun, and bullion bar at base.</desc>
  
  
    <g transform="translate(60, 60) scale(2.8)">
      <g>
        <circle cx="50" cy="50" r="48" fill="none" stroke="#C9A646" stroke-width="0.6" stroke-dasharray="2 4" opacity="0.55"/>
        <circle cx="50" cy="2" r="1.6" fill="#C9A646"/>
        <circle cx="98" cy="50" r="1.2" fill="#C9A646" opacity="0.5"/>
        <circle cx="50" cy="98" r="1.2" fill="#C9A646" opacity="0.5"/>
        <circle cx="2" cy="50" r="1.2" fill="#C9A646" opacity="0.5"/>
      </g>
      <polygon points="50,8 86,29 86,71 50,92 14,71 14,29" fill="none" stroke="#C9A646" stroke-width="1.5" opacity="0.85"/>
      <polygon points="50,16 79,32 79,68 50,84 21,68 21,32" fill="none" stroke="#C9A646" stroke-width="0.6" opacity="0.35"/>
      <circle cx="50" cy="34" r="4.2" fill="#C9A646"/>
      <circle cx="50" cy="34" r="7" fill="none" stroke="#C9A646" stroke-width="0.6" opacity="0.5"/>
      <polygon points="24,66 36,44 48,66" fill="#C9A646" opacity="0.75"/>
      <polygon points="32,66 52,34 72,66" fill="#C9A646"/>
      <polygon points="58,66 68,52 78,66" fill="#C9A646" opacity="0.85"/>
      <path d="M 24 68 L 76 68 L 72 78 L 28 78 Z" fill="#C9A646" stroke="#C9A646" stroke-width="0.5"/>
      <line x1="26" y1="69.5" x2="74" y2="69.5" stroke="#E5C76B" stroke-width="0.8" opacity="0.6"/>
    </g>
    
  
</svg>